<svg width="35" height="10" viewBox="0 0 35 10" fill="none" xmlns="http://www.w3.org/2000/svg">
<g clip-path="url(#clip0_77_756)">
<path d="M3.9944 9.24208C3.3304 9.24208 2.7424 9.11008 2.2304 8.84608C1.7264 8.57408 1.3304 8.18608 1.0424 7.68208C0.754402 7.17808 0.610402 6.58208 0.610402 5.89408V0.698083H2.5904V5.96608C2.5904 6.25408 2.6464 6.51408 2.7584 6.74608C2.8704 6.97808 3.0304 7.16208 3.2384 7.29808C3.4544 7.43408 3.7064 7.50208 3.9944 7.50208C4.2824 7.50208 4.5304 7.43408 4.7384 7.29808C4.9464 7.16208 5.1064 6.97808 5.2184 6.74608C5.3384 6.51408 5.3984 6.25408 5.3984 5.96608V0.698083H7.3784V5.96608C7.3784 6.25408 7.4344 6.51408 7.5464 6.74608C7.6584 6.97808 7.8184 7.16208 8.0264 7.29808C8.2424 7.43408 8.4944 7.50208 8.7824 7.50208C9.0704 7.50208 9.3184 7.43408 9.5264 7.29808C9.7424 7.16208 9.9064 6.97808 10.0184 6.74608C10.1304 6.51408 10.1864 6.25408 10.1864 5.96608V0.698083H12.1664V5.89408C12.1664 6.58208 12.0224 7.17808 11.7344 7.68208C11.4464 8.18608 11.0464 8.57408 10.5344 8.84608C10.0304 9.11008 9.4464 9.24208 8.7824 9.24208C8.4544 9.24208 8.1424 9.20208 7.8464 9.12208C7.5584 9.05008 7.2904 8.93808 7.0424 8.78608C6.8024 8.63408 6.5824 8.45008 6.3824 8.23408C6.1904 8.45008 5.9704 8.63408 5.7224 8.78608C5.4744 8.93008 5.2064 9.04208 4.9184 9.12208C4.6304 9.20208 4.3224 9.24208 3.9944 9.24208Z" fill="#272727"/>
<path d="M17.6179 9.25408C16.9459 9.25408 16.3379 9.14208 15.7939 8.91808C15.2499 8.69408 14.7819 8.38208 14.3899 7.98208C13.9979 7.58208 13.6939 7.11808 13.4779 6.59008C13.2699 6.06208 13.1659 5.49408 13.1659 4.88608C13.1659 4.27808 13.2699 3.71008 13.4779 3.18208C13.6939 2.65408 13.9939 2.19408 14.3779 1.80208C14.7699 1.40208 15.2379 1.09408 15.7819 0.878083C16.3339 0.654083 16.9459 0.542083 17.6179 0.542083C18.2819 0.542083 18.8859 0.654083 19.4299 0.878083C19.9819 1.09408 20.4499 1.40208 20.8339 1.80208C21.2259 2.19408 21.5299 2.65808 21.7459 3.19408C21.9619 3.72208 22.0699 4.28608 22.0699 4.88608C22.0699 5.49408 21.9619 6.06208 21.7459 6.59008C21.5299 7.11808 21.2259 7.58208 20.8339 7.98208C20.4499 8.38208 19.9819 8.69408 19.4299 8.91808C18.8859 9.14208 18.2819 9.25408 17.6179 9.25408ZM17.6179 7.53808C17.9699 7.53808 18.2939 7.47408 18.5899 7.34608C18.8939 7.21008 19.1539 7.02208 19.3699 6.78208C19.5859 6.54208 19.7539 6.26208 19.8739 5.94208C19.9939 5.61408 20.0539 5.26208 20.0539 4.88608C20.0539 4.51008 19.9939 4.16208 19.8739 3.84208C19.7539 3.52208 19.5859 3.24208 19.3699 3.00208C19.1539 2.76208 18.8939 2.57808 18.5899 2.45008C18.2939 2.31408 17.9699 2.24608 17.6179 2.24608C17.2579 2.24608 16.9299 2.31408 16.6339 2.45008C16.3379 2.57808 16.0779 2.76208 15.8539 3.00208C15.6379 3.24208 15.4699 3.52608 15.3499 3.85408C15.2379 4.17408 15.1819 4.51808 15.1819 4.88608C15.1819 5.26208 15.2379 5.61408 15.3499 5.94208C15.4699 6.26208 15.6379 6.54208 15.8539 6.78208C16.0779 7.02208 16.3379 7.21008 16.6339 7.34608C16.9299 7.47408 17.2579 7.53808 17.6179 7.53808Z" fill="#FF4C00"/>
<path d="M22.9624 9.23673V3.32073C22.9624 2.85673 23.0744 2.43673 23.2984 2.06073C23.5304 1.68473 23.8384 1.38873 24.2224 1.17273C24.6144 0.948731 25.0504 0.836731 25.5304 0.836731L28.6624 0.926575V2.51673H25.7824C25.5584 2.51673 25.3664 2.59673 25.2064 2.75673C25.0544 2.91673 24.9784 3.11273 24.9784 3.34473V4.55673H26.9289C27.3126 4.55673 27.6931 4.91831 27.6931 5.08102V6.74902C27.6931 6.60405 27.321 6.22473 26.9289 6.22473H24.9784V9.23673H22.9624Z" fill="#272727"/>
<path d="M28.6821 9.23673V3.32073C28.6821 2.85673 28.7941 2.43673 29.0181 2.06073C29.2501 1.68473 29.5581 1.38873 29.9421 1.17273C30.3341 0.948731 30.7701 0.836731 31.2501 0.836731H34.3821V2.51673H31.5021C31.2781 2.51673 31.0861 2.59673 30.9261 2.75673C30.7741 2.91673 30.6981 3.11273 30.6981 3.34473V4.55673H33.9741V6.22473H30.6981V9.23673H28.6821Z" fill="#272727"/>
<path fill-rule="evenodd" clip-rule="evenodd" d="M30.6624 3.32073V9.23673H28.6464V6.22473V4.55673V3.34473C28.6464 3.11273 28.5704 2.91673 28.4184 2.75673C28.2584 2.59673 28.0664 2.51673 27.8424 2.51673H24.9624L25.4623 0.836731H28.0944C28.5744 0.836731 29.0104 0.948731 29.4024 1.17273C29.7864 1.38873 30.0944 1.68473 30.3264 2.06073C30.5504 2.43673 30.6624 2.85673 30.6624 3.32073Z" fill="#272727"/>
</g>
<defs>
<clipPath id="clip0_77_756">
<rect width="35" height="10" fill="white"/>
</clipPath>
</defs>
</svg>
