<svg width="35" height="10" viewBox="0 0 35 10" fill="none" xmlns="http://www.w3.org/2000/svg">
<g clip-path="url(#clip0_85_786)">
<path d="M4.39018 9.1404C3.74278 9.1404 3.16948 9.0117 2.67028 8.7543C2.17888 8.4891 1.79278 8.1108 1.51198 7.6194C1.23118 7.128 1.09078 6.5469 1.09078 5.8761V0.81H3.02128V5.9463C3.02128 6.2271 3.07588 6.4806 3.18508 6.7068C3.29428 6.933 3.45028 7.1124 3.65308 7.245C3.86368 7.3776 4.10938 7.4439 4.39018 7.4439C4.67098 7.4439 4.91278 7.3776 5.11558 7.245C5.31838 7.1124 5.47438 6.933 5.58358 6.7068C5.70058 6.4806 5.75908 6.2271 5.75908 5.9463V0.81H7.68958V5.9463C7.68958 6.2271 7.74418 6.4806 7.85338 6.7068C7.96258 6.933 8.11858 7.1124 8.32138 7.245C8.53198 7.3776 8.77768 7.4439 9.05848 7.4439C9.33928 7.4439 9.58108 7.3776 9.78388 7.245C9.99448 7.1124 10.1544 6.933 10.2636 6.7068C10.3728 6.4806 10.4274 6.2271 10.4274 5.9463V0.81H12.3579V5.8761C12.3579 6.5469 12.2175 7.128 11.9367 7.6194C11.6559 8.1108 11.2659 8.4891 10.7667 8.7543C10.2753 9.0117 9.70588 9.1404 9.05848 9.1404C8.73868 9.1404 8.43448 9.1014 8.14588 9.0234C7.86508 8.9532 7.60378 8.844 7.36198 8.6958C7.12798 8.5476 6.91348 8.3682 6.71848 8.1576C6.53128 8.3682 6.31678 8.5476 6.07498 8.6958C5.83318 8.8362 5.57188 8.9454 5.29108 9.0234C5.01028 9.1014 4.70998 9.1404 4.39018 9.1404Z" fill="white"/>
<path d="M17.7931 9.156C17.1211 9.156 16.5131 9.044 15.9691 8.82C15.4251 8.596 14.9571 8.284 14.5651 7.884C14.1731 7.484 13.8691 7.02 13.6531 6.492C13.4451 5.964 13.3411 5.396 13.3411 4.788C13.3411 4.18 13.4451 3.612 13.6531 3.084C13.8691 2.556 14.1691 2.096 14.5531 1.704C14.9451 1.304 15.4131 0.995999 15.9571 0.779999C16.5091 0.555999 17.1211 0.443999 17.7931 0.443999C18.4571 0.443999 19.0611 0.555999 19.6051 0.779999C20.1571 0.995999 20.6251 1.304 21.0091 1.704C21.4011 2.096 21.7051 2.56 21.9211 3.096C22.1371 3.624 22.2451 4.188 22.2451 4.788C22.2451 5.396 22.1371 5.964 21.9211 6.492C21.7051 7.02 21.4011 7.484 21.0091 7.884C20.6251 8.284 20.1571 8.596 19.6051 8.82C19.0611 9.044 18.4571 9.156 17.7931 9.156ZM17.7931 7.44C18.1451 7.44 18.4691 7.376 18.7651 7.248C19.0691 7.112 19.3291 6.924 19.5451 6.684C19.7611 6.444 19.9291 6.164 20.0491 5.844C20.1691 5.516 20.2291 5.164 20.2291 4.788C20.2291 4.412 20.1691 4.064 20.0491 3.744C19.9291 3.424 19.7611 3.144 19.5451 2.904C19.3291 2.664 19.0691 2.48 18.7651 2.352C18.4691 2.216 18.1451 2.148 17.7931 2.148C17.4331 2.148 17.1051 2.216 16.8091 2.352C16.5131 2.48 16.2531 2.664 16.0291 2.904C15.8131 3.144 15.6451 3.428 15.5251 3.756C15.4131 4.076 15.3571 4.42 15.3571 4.788C15.3571 5.164 15.4131 5.516 15.5251 5.844C15.6451 6.164 15.8131 6.444 16.0291 6.684C16.2531 6.924 16.5131 7.112 16.8091 7.248C17.1051 7.376 17.4331 7.44 17.7931 7.44Z" fill="#FF4C00"/>
<path fill-rule="evenodd" clip-rule="evenodd" d="M28.2206 0.590939L28.0915 0.588403C28.1349 0.588403 28.1779 0.589248 28.2206 0.590939Z" fill="white"/>
<path fill-rule="evenodd" clip-rule="evenodd" d="M28.2565 0.591862C28.2523 0.591724 28.2481 0.591626 28.244 0.591576ZM28.3296 0.597152C28.3237 0.596712 28.3178 0.596133 28.3119 0.595554C28.3179 0.596064 28.3247 0.596388 28.3296 0.597152ZM28.2565 0.591862C28.2523 0.591724 28.2481 0.591626 28.244 0.591576C28.2404 0.591534 28.2369 0.591399 28.2334 0.591264M28.2206 0.590939C28.2242 0.591082 28.2298 0.591196 28.2334 0.591264Z" fill="white"/>
<path fill-rule="evenodd" clip-rule="evenodd" d="M28.2206 0.590939C28.1779 0.589248 28.1349 0.588403 28.0915 0.588403C28.106 0.588403 28.1204 0.588214 28.1349 0.588026C28.1553 0.587758 28.1757 0.588778 28.196 0.589794L28.2206 0.590939ZM28.3119 0.595554C28.3045 0.594831 28.3007 0.594346 28.2933 0.59389C28.3005 0.594561 28.3057 0.594986 28.3119 0.595554ZM28.244 0.591576C28.2404 0.591534 28.2369 0.591399 28.2334 0.591264C28.2298 0.591196 28.2242 0.591082 28.2206 0.590939C28.2284 0.591249 28.2362 0.591412 28.244 0.591576Z" fill="white"/>
<path fill-rule="evenodd" clip-rule="evenodd" d="M33.5953 0.588014L33.5518 0.588393C33.5663 0.588393 33.5809 0.588202 33.5953 0.588014ZM33.6809 0.588393C33.6526 0.587274 33.6238 0.587647 33.5953 0.588014Z" fill="white"/>
<path fill-rule="evenodd" clip-rule="evenodd" d="M33.5518 0.588393C33.5663 0.588393 33.5809 0.588202 33.5953 0.588014L33.5518 0.588393Z" fill="white"/>
<path fill-rule="evenodd" clip-rule="evenodd" d="M28.3296 0.597152C28.3247 0.596388 28.3179 0.596064 28.3119 0.595554C28.3057 0.594947 28.2995 0.594339 28.2933 0.59389M28.244 0.591576C28.2404 0.591534 28.2369 0.591399 28.2334 0.591264ZM28.2206 0.590939C28.2242 0.591082 28.2298 0.591196 28.2334 0.591264ZM28.3119 0.595554C28.3057 0.594947 28.2995 0.594339 28.2933 0.59389ZM28.3296 0.597152C28.3237 0.596712 28.3178 0.596133 28.3119 0.595554Z" fill="white"/>
<path fill-rule="evenodd" clip-rule="evenodd" d="M28.2933 0.59389L28.3119 0.595554C28.3163 0.595984 28.3252 0.596821 28.3296 0.597152L28.3119 0.595554C28.3045 0.594831 28.3007 0.594346 28.2933 0.59389ZM28.244 0.591576L28.2334 0.591264C28.2369 0.591399 28.2404 0.591534 28.244 0.591576ZM28.2206 0.590939L28.2334 0.591264C28.2298 0.591196 28.2242 0.591082 28.2206 0.590939Z" fill="white"/>
<path fill-rule="evenodd" clip-rule="evenodd" d="M28.2206 0.590939C28.2284 0.591249 28.2362 0.591412 28.244 0.591576L28.2206 0.590939ZM28.2933 0.59389C28.3005 0.594561 28.3057 0.594986 28.3119 0.595554C28.3178 0.596133 28.3237 0.596712 28.3296 0.597152L28.3119 0.595554L28.2933 0.59389Z" fill="white"/>
<path fill-rule="evenodd" clip-rule="evenodd" d="M28.3296 0.597152C28.3237 0.596712 28.3178 0.596133 28.3119 0.595554C28.3163 0.595984 28.3252 0.596821 28.3296 0.597152Z" fill="white"/>
<path d="M28.2206 0.590939L28.0915 0.588403H25.7995C25.3099 0.588403 24.8652 0.698557 24.4654 0.918865C24.0737 1.1313 23.7596 1.42243 23.523 1.79223C23.2945 2.16203 23.1803 2.57511 23.1803 3.03146V8.84995H25.2365V5.8876H27.2258C27.6257 5.8876 28.0052 6.26066 28.0052 6.40324V4.76273C28.0052 4.60271 27.6172 4.24709 27.2258 4.24709H25.2365V3.05507C25.2365 2.82689 25.314 2.63412 25.469 2.47676C25.6322 2.31939 25.828 2.24071 26.0565 2.24071L27.8357 2.24072C28.065 2.24168 28.2617 2.32036 28.4257 2.47676C28.5742 2.62579 28.6346 2.80659 28.6406 3.01914C28.641 3.03101 28.6411 3.04299 28.6411 3.05507L28.6406 8.84994H30.6968V5.88759H32.6861C33.086 5.88759 33.4656 6.26065 33.4656 6.40323V4.76272C33.4656 4.6027 33.0775 4.24708 32.6861 4.24708H30.6968L30.6962 3.05507C30.6962 2.82689 30.7743 2.63411 30.9293 2.47675C31.0925 2.31938 31.2883 2.2407 31.5168 2.2407H33.2918C33.7495 2.26386 34.0202 2.32787 34.3637 2.56545C34.4371 2.61622 34.541 2.566 34.541 2.47675V1.29759C34.541 1.14266 34.4892 0.989025 34.3762 0.883013C34.2217 0.738054 34.0309 0.615125 33.7899 0.597142C33.7538 0.591446 33.7173 0.588393 33.6809 0.588393C33.6526 0.587274 33.6238 0.587647 33.5953 0.588014C33.5809 0.588202 33.5663 0.588393 33.5518 0.588393H31.2598C31.2311 0.588393 31.2025 0.588771 31.1741 0.589529C31.1485 0.590213 31.1229 0.591207 31.0975 0.592509C31.0078 0.597108 30.9197 0.605558 30.8332 0.617861C30.5086 0.664003 30.2061 0.764334 29.9257 0.918855C29.8418 0.964368 29.7614 1.01349 29.6847 1.06623C29.607 1.0135 29.5257 0.964375 29.4409 0.918865C29.1023 0.734434 28.7318 0.627539 28.3296 0.597152C28.3237 0.596712 28.3178 0.596133 28.3119 0.595554C28.3057 0.594947 28.2995 0.594339 28.2933 0.59389C28.2803 0.59266 28.2704 0.592207 28.2565 0.591862L28.244 0.591576C28.2362 0.591412 28.2284 0.591249 28.2206 0.590939Z" fill="white"/>
</g>
<defs>
<clipPath id="clip0_85_786">
<rect width="35" height="10" fill="white"/>
</clipPath>
</defs>
</svg>
